<?xml version="1.0" encoding="utf-8"?><svg xmlns="http://www.w3.org/2000/svg" xmlns:xlink="http://www.w3.org/1999/xlink" width="200px" height="200px" viewBox="0 0 100 100" preserveAspectRatio="xMidYMid" style="margin-right:-2px;display:block;background-repeat-y:initial;background-repeat-x:initial;background-color:rgb(241, 242, 243);animation-play-state:paused" ><g transform="translate(50 50)" style="transform:matrix(1, 0, 0, 1, 50, 50);animation-play-state:paused" ><g transform="matrix(1,0,0,1,0,0)" style="transform:matrix(1, 0, 0, 1, 0, 0);animation-play-state:paused" ><path d="M30.8504457018047 -8.5 L38.8504457018047 -8.5 L38.8504457018047 8.5 L30.8504457018047 8.5 A32 32 0 0 1 27.824966998459136 15.804151718287823 L27.824966998459136 15.804151718287823 L33.481821247951515 21.461005967780203 L21.461005967780203 33.481821247951515 L15.804151718287825 27.824966998459136 A32 32 0 0 1 8.500000000000004 30.8504457018047 L8.500000000000004 30.8504457018047 L8.500000000000004 38.8504457018047 L-8.5 38.8504457018047 L-8.5 30.8504457018047 A32 32 0 0 1 -15.804151718287821 27.824966998459136 L-15.804151718287821 27.824966998459136 L-21.461005967780203 33.481821247951515 L-33.481821247951515 21.461005967780206 L-27.824966998459136 15.804151718287827 A32 32 0 0 1 -30.8504457018047 8.500000000000007 L-30.8504457018047 8.500000000000007 L-38.8504457018047 8.500000000000009 L-38.8504457018047 -8.499999999999996 L-30.8504457018047 -8.499999999999998 A32 32 0 0 1 -27.82496699845914 -15.80415171828782 L-27.82496699845914 -15.80415171828782 L-33.48182124795152 -21.461005967780196 L-21.461005967780224 -33.4818212479515 L-15.80415171828784 -27.824966998459125 A32 32 0 0 1 -8.499999999999995 -30.8504457018047 L-8.499999999999995 -30.8504457018047 L-8.499999999999996 -38.8504457018047 L8.49999999999998 -38.8504457018047 L8.499999999999982 -30.850445701804702 A32 32 0 0 1 15.80415171828783 -27.824966998459132 L15.80415171828783 -27.824966998459132 L21.46100596778021 -33.481821247951515 L33.4818212479515 -21.461005967780224 L27.824966998459125 -15.804151718287843 A32 32 0 0 1 30.8504457018047 -8.499999999999996 M0 -17A17 17 0 1 0 0 17 A17 17 0 1 0 0 -17" fill="#ff86a7" style="animation-play-state:paused" ></path></g></g><!-- generated by https://loading.io/ --></svg>